<svg width="85" height="54" viewBox="0 0 85 54" fill="none" xmlns="http://www.w3.org/2000/svg">
<path d="M82.5134 43.93C81.9334 44.19 79.8334 44.7 79.8234 43.43L79.7734 36.91C79.7534 34.68 78.4934 32.79 76.4934 31.86C74.4934 30.93 72.4134 30.97 70.1334 30.93L67.3034 30.88L45.4234 30.76L22.5734 30.8L11.6134 31C9.11336 31.05 6.20336 32.12 5.08336 34.5C4.66336 35.38 4.51336 36.36 4.51336 37.35V43.33C4.50336 43.64 4.33336 44.09 4.02336 44.16C3.03336 44.38 1.91336 44.22 1.14336 43.53C0.633362 43.07 0.333362 42.34 0.233362 41.63C-0.146638 38.82 -0.0666376 36.01 0.503362 33.23C0.943362 31.07 1.95336 29.15 3.38336 27.51L6.22336 24.25C8.02336 22.19 10.2234 20.62 12.8034 19.64C14.7834 18.89 16.7534 18.38 18.8634 17.98C28.0234 16.25 37.5934 15.96 46.9434 16.19C54.1634 16.37 63.2134 17.17 70.1334 19.16C72.9734 19.98 76.0434 21.33 77.8134 23.85C76.0234 22.83 74.2734 22 72.3134 21.37C65.3334 19.11 57.9134 18.37 50.5834 18.21C44.0534 18.07 37.6134 18.51 31.1334 19.35C28.1834 19.73 25.3534 20.16 22.5234 20.85C28.2234 20.27 33.8034 19.93 39.5334 19.84C43.6534 19.78 47.6434 19.91 51.7434 20.12C59.2434 20.51 68.5834 21.76 75.4934 24.67C79.4634 26.35 82.9434 28.89 83.8534 33.34C84.2534 35.27 84.3534 37.17 84.3234 39.15C84.3034 40.71 84.1334 43.22 82.5234 43.94L82.5134 43.93Z" fill="#D6D6D6"/>
<path d="M68.7732 43.89C67.0332 44.08 65.5132 44.14 63.8032 44.17C49.1532 44.38 34.5932 44.36 19.9532 44.17C18.4332 44.15 17.1132 44.08 15.6032 43.91C15.4532 43.89 15.2832 44.25 15.3232 44.38C15.6132 45.39 18.5132 44.53 18.5332 46.06C18.5532 47.19 18.5532 48.31 18.4932 49.43C18.3232 52.62 15.1332 53.27 12.5132 53.27C10.2832 53.27 7.48324 52.88 6.87324 50.31C6.68324 49.51 6.55324 48.7 6.54324 47.84V37.06C6.53324 34.35 9.08324 33.09 11.4132 33.05L18.6232 32.92L37.9032 32.81L52.6032 32.83L65.3032 32.93L72.8032 33.04C73.7932 33.05 74.7032 33.29 75.5632 33.7C76.9232 34.34 77.7032 35.61 77.7032 37.16V47.54C77.7032 48.64 77.5932 49.69 77.2432 50.7C76.8432 51.86 75.8332 52.61 74.6532 52.91C71.8332 53.64 66.0132 53.65 65.7632 49.48C65.6932 48.33 65.7132 47.2 65.7232 46.05C65.7232 45.51 66.1332 45.24 66.6032 45.15L68.5632 44.78C68.6932 44.76 68.9132 44.54 68.9532 44.42C68.9932 44.29 68.9032 44.07 68.7532 43.88L68.7732 43.89Z" fill="#D6D6D6"/>
<path d="M43.4434 14.48L40.6534 14.5C40.7334 12.26 40.2034 10.21 37.9134 9.36C36.8434 8.96 35.7534 8.72 34.6034 8.58C30.9334 8.14 25.5534 8.11 22.0234 9.23C19.0134 10.18 18.6034 13.14 18.8034 15.95C16.6334 16.4 14.2134 17.08 12.2034 17.82C12.0434 17.88 11.9034 17.55 11.8934 17.45C11.7434 14.39 11.6634 9.14 11.8434 6.15C11.9834 3.78 13.4834 1.85 15.7434 1.15C16.5834 0.89 17.4334 0.74 18.3434 0.66C20.9634 0.43 23.4934 0.24 26.1434 0.22L45.9934 0L53.1734 0.1C57.5734 0.16 61.8834 0.33 66.2534 0.7C70.0334 1.02 72.4734 2.98 72.4634 6.96L72.4334 15.94C72.4334 16.6 72.3734 17.21 72.2334 17.84C69.9034 17.06 67.6634 16.44 65.2934 16C65.6334 13.1 64.9734 10.13 61.9734 9.2C60.5134 8.74 59.0734 8.5 57.5334 8.4C54.2134 8.18 49.4034 8.12 46.2934 9.23C44.0734 10.02 43.2534 12.03 43.4334 14.49L43.4434 14.48Z" fill="#D6D6D6"/>
</svg>
