<svg width="208" height="168" viewBox="0 0 208 168" fill="none" xmlns="http://www.w3.org/2000/svg">
<path d="M19.6711 166.887C9.22883 165.331 1.32879 157.217 0.152698 146.823C-0.738283 139.006 2.30293 131.046 8.40913 125.997L32.632 105.956L43.1099 97.3433L107.688 44.2052C112.702 40.071 119.188 37.6832 125.484 40.3443L142.46 47.5315C144.504 48.3988 146.547 48.6839 148.329 47.0682L178.931 19.3765C180.416 18.0341 182.091 17.155 183.861 16.3591C188.376 14.3276 193.377 14.4939 197.808 16.656C202.703 19.0558 206.065 23.3562 206.896 28.8684C208.001 36.222 204.247 43.6587 197.511 47.1157L156.752 67.9647C152.261 70.2694 146.832 70.8871 142.223 68.7131L126.363 61.2527C123.868 60.0766 121.706 60.8844 120.031 62.9515L60.7276 136.155L44.1553 156.766C38.2273 164.143 29.365 168.313 19.683 166.876L19.6711 166.887Z" fill="#BAFF29"/>
<path d="M106.5 149.412C99.8237 148.153 94.2045 143.781 91.4484 137.77C86.4827 126.936 91.983 114.807 102.71 110.114L128.478 98.8521C129.868 98.2462 130.557 96.7375 130.616 95.4663C130.77 91.5223 124.07 90.9283 124.617 83.646C124.842 80.6523 126.684 77.7774 129.571 76.2093C133.55 74.0471 138.195 74.9737 141.605 77.908L157.702 91.7361C161.753 95.2169 163.178 100.67 162.276 105.861C161.575 109.9 159.329 113.013 156.395 115.781L128.121 142.475C122.3 147.963 114.697 150.957 106.512 149.4L106.5 149.412Z" fill="#BAFF29"/>
<path d="M52.4354 70.0437C43.1217 75.1045 31.6933 71.0178 27.9037 61.7041C25.504 55.7761 26.49 49.5511 30.2559 44.7042C32.9645 41.2234 36.7898 38.8356 41.1972 37.9446L92.684 27.5498C96.8301 26.7182 101.059 28.4883 102.984 32.1354C105.502 36.8992 103.269 42.1619 98.7665 44.6448L76.7533 56.7978L52.4116 70.0318L52.4354 70.0437Z" fill="#BAFF29"/>
<path d="M152.368 27.3716C149.255 32.7294 143.755 36.0082 137.957 36.5428C131.78 37.1012 125.769 34.7014 121.837 29.9614C117.465 24.6868 116.396 17.654 119.08 11.3934C123.583 0.891661 136.306 -3.15933 146.048 2.6855C154.613 7.82944 157.488 18.5806 152.379 27.3835L152.368 27.3716Z" fill="#BAFF29"/>
</svg>
