<svg width="44" height="36" viewBox="0 0 44 36" fill="#FF2617" xmlns="http://www.w3.org/2000/svg"><path d="M4.169 35.37C1.956 35.04.282 33.32.032 31.118c-.189-1.657.456-3.344 1.75-4.414l5.134-4.247 2.22-1.826 13.687-11.262c1.063-.876 2.437-1.382 3.772-.818l3.598 1.523c.433.184.866.244 1.244-.098l6.485-5.869c.315-.285.67-.471 1.045-.64.957-.43 2.017-.395 2.956.063 1.037.509 1.75 1.42 1.926 2.589.234 1.558-.561 3.134-1.989 3.867l-8.638 4.419c-.952.488-2.103.619-3.08.158l-3.361-1.581c-.529-.25-.987-.078-1.342.36L12.871 28.856l-3.513 4.369c-1.256 1.563-3.134 2.447-5.186 2.143Z"/><path d="M22.572 31.666c-1.415-.267-2.606-1.193-3.19-2.467-1.053-2.296.112-4.867 2.386-5.861l5.461-2.387c.295-.128.441-.448.453-.717.033-.836-1.387-.962-1.271-2.505.048-.635.438-1.244 1.05-1.576.843-.458 1.828-.262 2.55.36l3.412 2.93c.858.738 1.16 1.894.97 2.994-.15.856-.625 1.516-1.247 2.103l-5.992 5.657c-1.234 1.163-2.845 1.798-4.58 1.468Z"/><path d="M11.113 14.845c-1.974 1.073-4.396.206-5.199-1.767-.509-1.257-.3-2.576.498-3.603.574-.738 1.385-1.244 2.319-1.433l10.912-2.203c.879-.176 1.775.199 2.183.972.534 1.01.06 2.125-.894 2.651l-4.665 2.576-5.159 2.805Z"/><path d="M32.293 5.801c-.66 1.136-1.826 1.83-3.054 1.944-1.31.118-2.584-.39-3.417-1.395-.926-1.118-1.153-2.608-.584-3.935C26.192.189 28.889-.67 30.953.57c1.816 1.09 2.425 3.369 1.342 5.234Z"/></svg>
