<svg width="471" height="141" viewBox="0 0 471 141" fill="none" xmlns="http://www.w3.org/2000/svg">
<path d="M335.539 98.1605L348.248 56.4105C348.468 55.7005 349.118 55.2205 349.858 55.2205H383.879C384.619 55.2205 385.269 54.7305 385.479 54.0305L389.289 41.6105C389.509 40.9005 390.158 40.4205 390.898 40.4205L408.099 40.4405C409.229 40.4405 410.029 41.5305 409.699 42.6105L392.289 99.1405C392.069 99.8405 391.418 100.321 390.688 100.321H337.159C336.029 100.321 335.228 99.2205 335.548 98.1405L335.539 98.1605ZM376.358 83.6505L380.178 71.3605C380.508 70.2805 379.708 69.1905 378.578 69.1805L366.328 69.1405C365.598 69.1405 364.948 69.6105 364.718 70.3105L360.798 82.7105C360.458 83.8005 361.269 84.9005 362.409 84.8905L374.759 84.8205C375.489 84.8205 376.139 84.3405 376.349 83.6405L376.358 83.6505Z" fill="black"/>
<path d="M437.389 84.9506H460.349C460.919 84.9406 461.319 85.4906 461.159 86.0306L457.609 97.5006C457.089 99.1906 455.529 100.341 453.759 100.341L397.949 100.311C397.379 100.311 396.979 99.7606 397.139 99.2206L408.589 61.4906C409.719 57.7606 413.159 55.2106 417.059 55.2106H469.399C469.969 55.2106 470.379 55.7706 470.199 56.3206L465.719 70.4206C465.649 70.6506 465.479 70.8406 465.259 70.9406L437.049 83.3506C436.219 83.7206 436.479 84.9606 437.389 84.9606V84.9506ZM425.839 77.8306L439.569 70.7106C440.349 70.3006 440.059 69.1206 439.179 69.1206L427.569 69.1506C427.199 69.1506 426.869 69.4006 426.759 69.7506L424.639 76.8406C424.429 77.5506 425.169 78.1706 425.839 77.8306Z" fill="black"/>
<path d="M244.709 70.3506L240.739 82.7206C240.389 83.8006 241.199 84.9106 242.329 84.9106L260.449 84.9806C261.579 84.9806 262.379 86.0806 262.049 87.1506L258.339 99.1406C258.119 99.8406 257.469 100.321 256.729 100.321L216.809 100.281C215.679 100.281 214.879 99.1906 215.209 98.1106L223.929 69.7206L232.429 41.6006C232.639 40.8906 233.299 40.4106 234.039 40.4106H251.629C252.759 40.4106 253.569 41.5106 253.229 42.5906L250.009 53.0106C249.679 54.0906 250.479 55.1806 251.609 55.1806L269.299 55.2106C270.429 55.2106 271.229 56.3006 270.899 57.3806L267.649 67.9506C267.429 68.6506 266.779 69.1306 266.049 69.1306L246.299 69.1706C245.569 69.1706 244.929 69.6406 244.699 70.3406L244.709 70.3506Z" fill="black"/>
<path d="M293.178 70.3706L284.338 99.1306C284.118 99.8306 283.468 100.321 282.738 100.321H265.669C264.539 100.321 263.738 99.2306 264.058 98.1606L276.708 56.3906C276.918 55.6806 277.579 55.2006 278.319 55.2006L315.468 55.2506C316.598 55.2506 317.409 56.3506 317.069 57.4306L313.778 68.0306C313.558 68.7306 312.908 69.2106 312.178 69.2106H294.789C294.049 69.2106 293.398 69.6906 293.188 70.3906L293.178 70.3706Z" fill="black"/>
<path d="M328.119 100.291L310.959 100.351C309.829 100.351 309.019 99.2606 309.349 98.1806L322.209 56.4106C322.429 55.7106 323.079 55.2306 323.819 55.2306H340.939C342.069 55.2306 342.879 56.3306 342.539 57.4106L329.719 99.1206C329.499 99.8206 328.859 100.301 328.119 100.311V100.291Z" fill="black"/>
<path d="M343.169 51.2905H325.949C324.809 51.3005 323.999 50.2005 324.349 49.1105L326.749 41.6005C326.969 40.9005 327.619 40.4305 328.349 40.4305H345.409C346.529 40.4305 347.339 41.5205 347.019 42.5905L344.789 50.0805C344.579 50.7905 343.919 51.2805 343.179 51.2805L343.169 51.2905Z" fill="black"/>
<path d="M172.899 100.301C180.439 100.301 187.779 97.9105 193.869 93.4805L215.809 77.5205C215.809 77.5205 215.839 77.4905 215.839 77.4805L218.469 69.1905C219.359 66.3805 217.269 63.5205 214.319 63.5105L174.149 63.4505C174.069 63.4505 174.039 63.3505 174.099 63.3005L182.739 57.0605C182.739 57.0605 182.769 57.0405 182.789 57.0405L217.089 57.0005C220.059 57.0005 222.679 55.0605 223.549 52.2205L225.509 45.8105C226.329 43.1405 224.329 40.4305 221.529 40.4305H184.469C176.869 40.4305 169.469 42.8005 163.299 47.2405L157.009 51.7505L132.999 69.1805C131.859 70.0105 131.799 71.6705 132.859 72.5905L135.089 74.5105C136.759 75.9505 138.879 76.7405 141.079 76.7405L186.259 76.7705C187.179 76.7705 187.569 77.9405 186.839 78.4905L182.599 81.6905C181.149 82.7805 179.389 83.3805 177.569 83.3805H142.249C141.139 83.3805 140.299 84.3405 140.369 85.4505C140.459 86.8505 140.389 88.2905 140.129 89.7505C139.549 93.1005 137.819 96.2105 135.069 99.1305C134.639 99.5805 134.959 100.321 135.579 100.321H172.889L172.899 100.301Z" fill="black"/>
<path d="M128.259 23.0506C132.559 15.6406 130.139 6.59057 122.929 2.26057C114.729 -2.65943 104.019 0.750572 100.229 9.59057C97.9686 14.8506 98.8686 20.7806 102.549 25.2206C105.859 29.2106 110.929 31.2406 116.119 30.7606C120.999 30.3106 125.629 27.5506 128.249 23.0406L128.259 23.0506ZM16.5586 140.491C24.7086 141.711 32.1686 138.191 37.1586 131.981L51.1086 114.631L101.029 53.0106C102.439 51.2706 104.259 50.6006 106.359 51.5806L119.709 57.8606C123.589 59.6906 128.159 59.1606 131.939 57.2306L166.249 39.6806C171.929 36.7806 175.089 30.5106 174.149 24.3206C173.449 19.6806 170.619 16.0606 166.499 14.0406C162.769 12.2106 158.559 12.0806 154.759 13.7906C153.269 14.4606 151.859 15.2006 150.609 16.3306L124.849 39.6406C123.349 40.9906 121.629 40.7506 119.909 40.0306L105.619 33.9806C100.319 31.7406 94.8685 33.7506 90.6385 37.2306L36.2785 81.9606L27.4586 89.2106L7.06855 106.081C1.93855 110.321 -0.621448 117.021 0.128552 123.601C1.11855 132.361 7.76855 139.181 16.5586 140.491ZM89.6486 125.781C96.5386 127.081 102.939 124.571 107.839 119.951L131.639 97.4806C134.109 95.1506 135.999 92.5306 136.589 89.1306C137.349 84.7606 136.149 80.1706 132.739 77.2406L119.189 65.6006C116.319 63.1406 112.409 62.3606 109.059 64.1706C106.629 65.4906 105.069 67.9106 104.889 70.4306C104.429 76.5606 110.069 77.0606 109.939 80.3806C109.899 81.4506 109.309 82.7206 108.139 83.2306L86.4485 92.7106C77.4185 96.6506 72.7886 106.871 76.9686 115.991C79.2886 121.061 84.0185 124.731 89.6385 125.791L89.6486 125.781Z" fill="black"/>
<path d="M16.5585 140.491C7.76854 139.181 1.11854 132.351 0.128537 123.601C-0.621463 117.021 1.93854 110.321 7.07854 106.071L27.4685 89.2005L36.2885 81.9505L90.6485 37.2205C94.8685 33.7405 100.329 31.7305 105.629 33.9705L119.919 40.0205C121.639 40.7505 123.359 40.9905 124.859 39.6305L150.619 16.3205C151.869 15.1905 153.279 14.4505 154.769 13.7805C158.569 12.0705 162.779 12.2105 166.509 14.0305C170.629 16.0505 173.459 19.6705 174.159 24.3105C175.089 30.5005 171.929 36.7605 166.259 39.6705L131.949 57.2205C128.169 59.1605 123.599 59.6805 119.719 57.8505L106.369 51.5705C104.269 50.5805 102.449 51.2605 101.039 53.0005L51.1185 114.621L37.1685 131.971C32.1785 138.181 24.7185 141.691 16.5685 140.481L16.5585 140.491Z" fill="#BAFF29"/>
<path d="M89.6485 125.781C84.0285 124.721 79.2986 121.041 76.9786 115.981C72.7986 106.861 77.4285 96.6506 86.4585 92.7006L108.149 83.2206C109.319 82.7106 109.899 81.4406 109.949 80.3706C110.079 77.0506 104.439 76.5506 104.899 70.4206C105.089 67.9006 106.639 65.4806 109.069 64.1606C112.419 62.3406 116.329 63.1206 119.199 65.5906L132.749 77.2306C136.159 80.1606 137.359 84.7506 136.599 89.1206C136.009 92.5206 134.119 95.1406 131.649 97.4706L107.849 119.941C102.949 124.561 96.5486 127.081 89.6586 125.771L89.6485 125.781Z" fill="#BAFF29"/>
<path d="M44.1385 58.9705C36.2985 63.2305 26.6785 59.7905 23.4885 51.9505C21.4685 46.9605 22.2985 41.7205 25.4685 37.6405C27.7485 34.7105 30.9685 32.7005 34.6785 31.9505L78.0185 23.2005C81.5085 22.5005 85.0685 23.9905 86.6885 27.0605C88.8085 31.0705 86.9285 35.5005 83.1385 37.5905L64.6085 47.8205L44.1185 58.9605L44.1385 58.9705Z" fill="#BAFF29"/>
<path d="M128.259 23.0506C125.639 27.5606 121.009 30.3206 116.129 30.7706C110.929 31.2406 105.869 29.2206 102.559 25.2306C98.8785 20.7906 97.9785 14.8706 100.239 9.60058C104.029 0.760582 114.739 -2.64942 122.939 2.27058C130.149 6.60058 132.569 15.6506 128.269 23.0606L128.259 23.0506Z" fill="#BAFF29"/>
</svg>
