<svg width="89" height="72" viewBox="0 0 89 72" fill="none" xmlns="http://www.w3.org/2000/svg">
<path d="M8.44577 71.6529C3.96238 70.9847 0.570516 67.501 0.0655608 63.038C-0.316981 59.6818 0.988761 56.2645 3.61045 54.0967L14.0105 45.4921L18.5092 41.7942L46.2358 18.9794C48.3882 17.2044 51.1731 16.1792 53.8764 17.3218L61.1651 20.4076C62.0424 20.7799 62.9197 20.9023 63.6848 20.2087L76.8238 8.31928C77.4614 7.74291 78.1806 7.36547 78.9405 7.02374C80.8787 6.15154 83.0261 6.22295 84.9286 7.15125C87.03 8.18156 88.4735 10.028 88.8305 12.3946C89.3049 15.5519 87.6931 18.7448 84.8011 20.2291L67.3011 29.1805C65.3731 30.17 63.0421 30.4353 61.0631 29.5019L54.2538 26.2987C53.1827 25.7938 52.2544 26.1406 51.5353 27.0281L26.0733 58.4577L18.958 67.3072C16.4128 70.4746 12.6078 72.2649 8.45087 71.6477L8.44577 71.6529Z" fill="#FF5900"/>
<path d="M45.7256 64.1499C42.8591 63.6093 40.4465 61.7323 39.2632 59.1514C37.1312 54.4997 39.4927 49.292 44.0985 47.2773L55.1616 42.442C55.7584 42.1818 56.0542 41.5341 56.0797 40.9883C56.146 39.2949 53.2693 39.0399 53.5039 35.9133C53.6008 34.6279 54.3914 33.3936 55.6309 32.7203C57.3395 31.792 59.3339 32.1899 60.7977 33.4497L67.709 39.3867C69.4483 40.8812 70.0603 43.2224 69.6727 45.4513C69.3718 47.1855 68.4077 48.5218 67.1479 49.7103L55.0086 61.1712C52.5093 63.5277 49.245 64.813 45.7307 64.1448L45.7256 64.1499Z" fill="#FF5900"/>
<path d="M22.5129 30.0731C18.5141 32.246 13.6073 30.4914 11.9803 26.4925C10.95 23.9474 11.3733 21.2747 12.9902 19.1937C14.1531 17.6992 15.7955 16.674 17.6878 16.2914L39.7936 11.8285C41.5737 11.4714 43.3895 12.2314 44.2158 13.7973C45.2971 15.8426 44.3382 18.1021 42.4051 19.1681L32.9537 24.386L22.5027 30.068L22.5129 30.0731Z" fill="#FF5900"/>
<path d="M65.4187 11.752C64.0824 14.0523 61.7208 15.4601 59.2318 15.6896C56.5795 15.9293 53.9986 14.899 52.3103 12.8639C50.4333 10.5992 49.9743 7.57971 51.127 4.89172C53.0601 0.382833 58.5228 -1.35646 62.7052 1.15302C66.3827 3.36156 67.6171 7.97756 65.4238 11.7571L65.4187 11.752Z" fill="#FF5900"/>
</svg>
