<svg width="9" height="9" viewBox="0 0 9 9" fill="none" xmlns="http://www.w3.org/2000/svg">
<path d="M8.09961 0.25C8.27205 0.25 8.43763 0.318493 8.55957 0.44043C8.68151 0.562366 8.75 0.727947 8.75 0.900391C8.74995 1.07277 8.68146 1.23846 8.55957 1.36035L5.41895 4.5L8.55957 7.63965C8.61983 7.69991 8.66752 7.77188 8.7002 7.85059C8.73285 7.92941 8.74998 8.01429 8.75 8.09961C8.75 8.185 8.73287 8.26975 8.7002 8.34863C8.66752 8.42747 8.61992 8.49922 8.55957 8.55957C8.49922 8.61992 8.42747 8.66752 8.34863 8.7002C8.26975 8.73287 8.185 8.75 8.09961 8.75C8.01429 8.74998 7.92941 8.73285 7.85059 8.7002C7.77188 8.66752 7.69991 8.61983 7.63965 8.55957L4.5 5.41895L1.36035 8.55957C1.23846 8.68146 1.07277 8.74995 0.900391 8.75C0.727947 8.75 0.562366 8.68151 0.44043 8.55957C0.318493 8.43763 0.25 8.27205 0.25 8.09961C0.25005 7.92723 0.318538 7.76154 0.44043 7.63965L3.58008 4.5L0.44043 1.36035C0.318538 1.23846 0.25005 1.07277 0.25 0.900391C0.25 0.727947 0.318493 0.562366 0.44043 0.44043C0.562366 0.318493 0.727947 0.25 0.900391 0.25C1.07277 0.25005 1.23846 0.318538 1.36035 0.44043L4.5 3.58008L7.63965 0.44043C7.76154 0.318538 7.92723 0.25005 8.09961 0.25Z" fill="black" stroke="black" stroke-width="0.5"/>
</svg>
