<svg width="1024" height="1024" viewBox="0 0 1024 1024" fill="none" xmlns="http://www.w3.org/2000/svg">
  <!-- Black background -->
  <rect width="1024" height="1024" fill="#000000"/>
  
  <!-- Stride Logo centered and scaled -->
  <g transform="translate(512, 512)">
    <!-- Scale the logo to fit nicely in the icon (approximately 60% of icon size) -->
    <g transform="scale(12.5) translate(-22, -18)">
      <!-- Main body path -->
      <path d="M4.16908 35.37C1.95595 35.0402 0.281624 33.3205 0.0323628 31.1175C-0.156471 29.4608 0.488082 27.7738 1.78222 26.7038L6.91599 22.4563L9.13667 20.6309L22.8234 9.36883C23.8859 8.49264 25.2606 7.98657 26.595 8.55055L30.1929 10.0738C30.626 10.2576 31.059 10.318 31.4367 9.97562L37.9225 4.10666C38.2372 3.82215 38.5922 3.63583 38.9674 3.46714C39.9242 3.0366 40.9841 3.07185 41.9233 3.53009C42.9606 4.03868 43.6731 4.95012 43.8494 6.11837C44.0835 7.67688 43.2879 9.25301 41.8603 9.98569L33.2218 14.4044C32.2701 14.8929 31.1195 15.0238 30.1426 14.563L26.7813 12.9819C26.2526 12.7326 25.7943 12.9038 25.4393 13.3419L12.8706 28.8565L9.35824 33.2248C8.10186 34.7884 6.2236 35.6721 4.1716 35.3675L4.16908 35.37Z" fill="#FF2617"/>
      <!-- Top right element -->
      <path d="M22.5715 31.6664C21.1565 31.3995 19.9656 30.4729 19.3815 29.1989C18.3291 26.9027 19.4948 24.332 21.7684 23.3375L27.2294 20.9507C27.524 20.8223 27.6701 20.5025 27.6826 20.2331C27.7154 19.3972 26.2953 19.2713 26.4112 17.7279C26.459 17.0934 26.8493 16.4841 27.4611 16.1518C28.3045 15.6935 29.289 15.8899 30.0116 16.5118L33.4232 19.4425C34.2818 20.1802 34.5839 21.3359 34.3925 22.4362C34.244 23.2922 33.7681 23.9519 33.1462 24.5385L27.1539 30.196C25.9202 31.3592 24.3088 31.9937 22.5741 31.6638L22.5715 31.6664Z" fill="#FF2617"/>
      <!-- Middle left element -->
      <path d="M11.1131 14.845C9.13917 15.9176 6.71706 15.0515 5.91389 13.0776C5.4053 11.8212 5.61427 10.5019 6.41241 9.4746C6.98647 8.73689 7.79719 8.23082 8.73129 8.04198L19.6434 5.83892C20.5221 5.66267 21.4184 6.03782 21.8263 6.81078C22.3601 7.82042 21.8867 8.9358 20.9325 9.46201L16.267 12.0377L11.1081 14.8425L11.1131 14.845Z" fill="#FF2617"/>
      <!-- Top circle/dot -->
      <path d="M32.2926 5.80112C31.633 6.93664 30.4673 7.63155 29.2386 7.74485C27.9293 7.86319 26.6553 7.35459 25.8219 6.35C24.8954 5.2321 24.6688 3.74157 25.2378 2.4147C26.1921 0.188978 28.8886 -0.669587 30.9532 0.569164C32.7685 1.65936 33.3778 3.93796 32.2952 5.80364L32.2926 5.80112Z" fill="#FF2617"/>
    </g>
  </g>
</svg>
