<svg width="81" height="38" viewBox="0 0 81 38" fill="none" xmlns="http://www.w3.org/2000/svg">
<path d="M8.30134 20.56C8.20134 15.44 8.35134 11.27 8.75134 8.07C7.77134 7.81 6.75133 7.91 5.77133 8.13C2.77133 8.8 2.96133 11.85 2.72133 14.36C1.23133 14.55 0.121335 15.6 0.0413349 17.15C-0.0186651 18.31 -0.00866512 19.47 0.0413349 20.63C0.111335 22.21 1.18133 23.33 2.73133 23.55C2.93133 25.47 2.76133 28.11 4.56133 29.22C5.66133 29.9 7.69133 30.18 8.99133 29.71C8.60133 26.85 8.36134 23.84 8.30134 20.57V20.56Z" fill="#C6D031"/>
<path d="M20.5413 20.25V17.59C20.5413 15.67 21.8513 14.06 23.6713 13.62V13.08C23.6013 10.74 23.5413 8.47 23.3413 6.15C23.2313 4.9 22.8913 3.75 22.3213 2.67C21.6113 1.31 20.4113 0.39 18.8813 0.11C18.2713 0 17.6313 0 16.9713 0C14.1113 0 12.0713 0.98 11.1013 3.76C9.66127 7.89 9.65127 16.01 9.73127 20.53C9.80127 24.22 10.0813 27.78 10.6913 31.4C10.8813 32.51 11.2713 33.52 11.8213 34.47C12.9813 36.47 15.1913 37.04 17.3713 37.03C19.7013 37.03 21.8313 36.44 22.9113 34.11C23.3013 33.21 23.5513 32.35 23.6313 31.41C23.8413 29.07 23.9113 26.77 23.9213 24.42V24.27C21.9713 23.92 20.5413 22.26 20.5413 20.25ZM14.9713 10.88C13.6813 10.74 14.1513 8.51 14.3213 7.57C14.4313 6.95 14.6013 6.34 15.0213 5.88C15.2413 5.64 15.6913 5.54 15.9713 5.67C16.1813 5.77 16.4413 6.15 16.4513 6.47C16.4613 7.4 16.3813 11.03 14.9813 10.88H14.9713Z" fill="#C6D031"/>
<path d="M72.1312 20.56C72.2312 15.44 72.0812 11.27 71.6812 8.07C72.6612 7.81 73.6812 7.91 74.6612 8.13C77.6612 8.8 77.4712 11.85 77.7112 14.36C79.2012 14.55 80.3112 15.6 80.3912 17.15C80.4512 18.31 80.4412 19.47 80.3912 20.63C80.3212 22.21 79.2512 23.33 77.7012 23.55C77.5012 25.47 77.6712 28.11 75.8712 29.22C74.7712 29.9 72.7412 30.18 71.4412 29.71C71.8312 26.85 72.0712 23.84 72.1312 20.57V20.56Z" fill="#C6D031"/>
<path d="M56.0612 14.95L47.3012 14.05C42.5912 13.57 37.8412 13.57 33.1312 14.05L24.3712 14.95C23.0112 15.09 21.9812 16.23 21.9812 17.59V20.25C21.9812 21.61 23.0112 22.75 24.3712 22.89L33.1312 23.79C37.8412 24.27 42.5912 24.27 47.3012 23.79L56.0612 22.89C57.4212 22.75 58.4512 21.61 58.4512 20.25V17.59C58.4512 16.23 57.4212 15.09 56.0612 14.95Z" fill="#C6D031"/>
<path d="M56.5012 24.27V24.42C56.5012 26.76 56.5812 29.06 56.7912 31.41C56.8712 32.35 57.1212 33.22 57.5112 34.11C58.5912 36.44 60.7212 37.02 63.0512 37.03C65.2412 37.03 67.4412 36.47 68.6012 34.47C69.1512 33.52 69.5412 32.51 69.7312 31.4C70.3412 27.78 70.6212 24.22 70.6912 20.53C70.7812 16.01 70.7612 7.89 69.3212 3.76C68.3612 0.98 66.3112 0 63.4512 0C62.8012 0 62.1612 0 61.5312 0.11C60.0112 0.38 58.8012 1.31 58.0912 2.67C57.5212 3.75 57.1812 4.9 57.0712 6.15C56.8712 8.47 56.8012 10.74 56.7512 13.08V13.62C58.5512 14.06 59.8712 15.67 59.8712 17.59V20.25C59.8712 22.25 58.4312 23.92 56.4912 24.27H56.5012ZM63.9912 6.47C63.9912 6.15 64.2512 5.77 64.4712 5.67C64.7512 5.54 65.2012 5.64 65.4212 5.88C65.8412 6.35 66.0112 6.95 66.1212 7.57C66.2912 8.51 66.7612 10.74 65.4712 10.88C64.0712 11.03 63.9812 7.4 64.0012 6.47H63.9912Z" fill="#C6D031"/>
</svg>
