<svg width="18" height="19" viewBox="0 0 18 19" fill="none" xmlns="http://www.w3.org/2000/svg">
<circle cx="2.78261" cy="13.9013" r="2.03261" stroke="black" stroke-width="1.5"/>
<circle cx="14.9783" cy="13.9013" r="2.03261" stroke="black" stroke-width="1.5"/>
<path d="M2.22826 15.9338C2.90579 16.4266 5.22173 17.4121 9.06521 17.4121" stroke="black" stroke-width="1.5" stroke-linecap="round"/>
<path d="M4.07609 12.2383C4.55219 12.731 6.17961 13.7165 8.88044 13.7165" stroke="black" stroke-width="1.5" stroke-linecap="round"/>
<path d="M13.6848 12.2383C13.2087 12.731 11.5813 13.7165 8.88044 13.7165" stroke="black" stroke-width="1.5" stroke-linecap="round"/>
<path d="M15.7174 15.9338C15.0399 16.4266 12.7239 17.4121 8.88044 17.4121" stroke="black" stroke-width="1.5" stroke-linecap="round"/>
<path d="M13.5 12.4229L15.8704 3.12372C15.8865 3.0605 15.8387 2.99902 15.7735 2.99902H8.32608C7.50966 2.99902 6.84782 3.66086 6.84782 4.47728C6.84782 5.29371 7.50966 5.95555 8.32608 5.95555H12.3913" stroke="black" stroke-width="1.5" stroke-linecap="round"/>
<line x1="13.3332" y1="2.79298" x2="14.0723" y2="0.206026" stroke="black" stroke-width="1.5"/>
</svg>
